<svg viewBox="0 0 45.64 54.48"><g id="Layer_2" data-name="Layer 2"><g id="Layer_1-2" data-name="Layer 1"><path class="cls-1" d="M42,34.16a3.63,3.63,0,0,0-2.57,1.07c-3.16-2.23-8.07-5.64-11.6-8,3.62-2.43,8.75-6,11.89-8.27a3.67,3.67,0,1,0-1.39-2.87,2.88,2.88,0,0,0,.1.78c-3.37,1.52-8.62,4-12.48,5.84C25.4,14.85,24.1.91,23.9,0H21.81c-.2.91-1.5,14.81-2,22.7-3.9-1.89-9.19-4.35-12.52-5.86a3.55,3.55,0,0,0,.08-.73,3.68,3.68,0,1,0-3.67,3.67A3.56,3.56,0,0,0,6,18.92c3.15,2.25,8.32,5.89,12,8.33-3.55,2.36-8.52,5.81-11.67,8a3.73,3.73,0,0,0-2.63-1.12,3.67,3.67,0,1,0,3.67,3.67s0,0,0-.06c3.29-1.52,8.54-4,12.43-5.91.49,7.91,1.69,21.71,1.89,22.62h2.4c.18-.92,1.4-14.75,1.87-22.65,3.86,1.89,9.06,4.34,12.38,5.87,0,0,0,.09,0,.13A3.67,3.67,0,1,0,42,34.16"/></g></g></svg>