<svg viewBox="0 0 52.68 48.78"><g id="Layer_2" data-name="Layer 2"><g id="Layer_1-2" data-name="Layer 1"><path class="cls-1" d="M0,45.44l11.67,3.34V3.35L0,0ZM6.14,13.36l1.77.93a17.66,17.66,0,0,0-1.73,5.35l-2-.26A20,20,0,0,1,6.14,13.36ZM1.19,22.23l1.43-1.39,1.74,1.79,1.51-1.27L7.16,22.9l-1.4,1.17,1.13,1.17L5.46,26.63,4.22,25.36,2.46,26.83,1.18,25.3l1.65-1.38Z"/><path class="cls-1" d="M13.67,48.78l11.67-3.34V0L13.67,3.35Zm9.79-9.62-1.64,1.15A10.36,10.36,0,0,1,21.07,39a12.6,12.6,0,0,1-1.32-5.69,14.28,14.28,0,0,1,.15-2.06c.1-.64.2-1.39.3-2.22l2,.23c-.1.86-.21,1.63-.31,2.29a11.68,11.68,0,0,0-.13,1.76,10.66,10.66,0,0,0,1.1,4.78A8.24,8.24,0,0,0,23.46,39.16ZM16.3,8.48c3.36.92,5.41,4.16,6.08,9.66l-2,.24c-.56-4.61-2.11-7.29-4.62-8Z"/><path class="cls-1" d="M27.34,45.44,39,48.78V3.35L27.34,0ZM37.44,7.82l.14,2c-.51,0-2.06.15-2.06,4.56A32.88,32.88,0,0,0,35.77,18l0,.06v.24h-1l-.89.44-.08-.16,0-.17a33.9,33.9,0,0,1-.29-4C33.52,10.22,34.84,8,37.44,7.82ZM35.08,29.16l2,.05a14.14,14.14,0,0,1-4.46,10.5l-1.38-1.46A12,12,0,0,0,35.08,29.16Z"/><path class="cls-1" d="M52.64,35.51l0,.08V0L41,3.35V48.78l11.67-3.34V37.59a6.63,6.63,0,0,1-1.62.21,5.1,5.1,0,0,1-4.25-2.08l1.61-1.19C49.94,36.58,52.53,35.55,52.64,35.51Zm-5.17-11-2-.28c.17-1.23.41-2.56.7-3.95a13.55,13.55,0,0,0,.31-2.8,7.93,7.93,0,0,0-.7-3.43l1.81-.86a10,10,0,0,1,.89,4.29,16.06,16.06,0,0,1-.35,3.21C47.86,22,47.64,23.32,47.47,24.51Z"/></g></g></svg>