<svg viewBox="0 0 59.4 59.17"><g id="Layer_2" data-name="Layer 2"><g id="Layer_1-2" data-name="Layer 1"><polygon class="cls-1" points="16.09 41.16 9.7 34.67 8 36.4 23.1 51.75 24.8 50.02 18.41 43.52 16.09 41.16"/><polygon class="cls-1" points="50.02 34.17 43.63 40.66 41.31 43.02 34.91 49.52 36.61 51.25 51.72 35.9 50.02 34.17"/><path class="cls-1" d="M3.36,51.93a6.15,6.15,0,0,1,2.4,1.44,6,6,0,0,1,1.45,2.38l8.51-8.43L11.86,43.5Z"/><path class="cls-1" d="M2.39,54.37a2.84,2.84,0,0,0-.5.06,2.3,2.3,0,0,0-1.19.65.93.93,0,0,0-.13.15A2.39,2.39,0,0,0,3.93,58.6l.16-.13a2.42,2.42,0,0,0,0-3.39A2.39,2.39,0,0,0,2.39,54.37Z"/><path class="cls-1" d="M42.94,37.47h0l-8-8-.17-.17L56.86,7.21,58.36.5,51.63,2,29.54,24.07,7,1.47.22,0,1.71,6.71,24.31,29.3,15.64,38l5.23,5.23s3.67-3.69,8.66-8.68l8.18,8.18Z"/><path class="cls-1" d="M47.66,43.25l-3.65,4L52.07,56a6.31,6.31,0,0,1,1.38-2.47A5.64,5.64,0,0,1,55.72,52Z"/><path class="cls-1" d="M58.84,55.23c-.05,0-.08-.11-.13-.15a2.37,2.37,0,0,0-1.2-.65,2.73,2.73,0,0,0-.5-.06,2.4,2.4,0,0,0-2.34,2.91,2.44,2.44,0,0,0,.64,1.19l.16.13a2.39,2.39,0,0,0,3.37-3.37Z"/></g></g></svg>