<svg viewBox="0 0 35.95 50.15"><g id="Layer_2" data-name="Layer 2"><g id="Layer_1-2" data-name="Layer 1"><path class="cls-1" d="M32.19,0H3.76A3.77,3.77,0,0,0,0,3.76V46.39a3.77,3.77,0,0,0,3.76,3.76H32.19A3.77,3.77,0,0,0,36,46.39V3.76A3.77,3.77,0,0,0,32.19,0ZM23.78,31.79c-3.44.68-5.58-3.59-5.58-3.59s-.75,8.7,7.75,9.23H10c8.5-.53,7.75-9.23,7.75-9.23s-2.14,4.27-5.58,3.59c-5.66-1.1-3.24-6.72-3.24-6.72.19-1.83,8.35-6.85,9-12.18a1.22,1.22,0,0,0,0-.17H18c0,.06,0,.12,0,.17.7,5.33,8.85,10.35,9.05,12.18C27,25.07,29.43,30.69,23.78,31.79Z"/></g></g></svg>