<svg viewBox="0 0 41.41 66.58"><g id="Layer_2" data-name="Layer 2"><g id="Layer_1-2" data-name="Layer 1"><path class="cls-1" d="M39.47,25.44l-5.81-6.63a8.35,8.35,0,0,1-1.8-3.45l-.4-1.62a7.37,7.37,0,0,0-2.74-4.12l-4-3L22.68,0,19.12,5.09a14.13,14.13,0,0,0-13.23,5.6C-4.43,23.81,15.05,48.34,1.81,55c0,0,31.05,2,31.05-.51a18,18,0,0,0-.26-2.54,40.11,40.11,0,0,0-2.8-9.67C28.28,39.18,21.66,34.6,19.12,31a6.32,6.32,0,0,1,0-7.12S29.8,29,31.33,32.06s6.62,0,9.16-2.54S39.47,25.44,39.47,25.44Z"/><path class="cls-1" d="M0,57.68v7.63a115.31,115.31,0,0,0,34.1,0V57.68A114,114,0,0,1,0,57.68Z"/></g></g></svg>