<svg viewBox="0 0 52.63 57.24"><g id="Layer_2" data-name="Layer 2"><g id="Layer_1-2" data-name="Layer 1"><path class="cls-1" d="M50.44,12.62c1-.65,1.21-1.1,1.21-1.18,0-.28-.76-.9-1.44-1.2C50,10.13,32.05,1.45,29.15.38A6,6,0,0,0,27.09,0a5.86,5.86,0,0,0-2,.45C22.25,1.64,3.44,11,3.25,11.07c-.69.33-1.4,1-1.41,1.25,0,.09.2.53,1.24,1.15C7.61,16.14,26,25.92,26.16,26l.06,0a2,2,0,0,0,.71.07h.13a2,2,0,0,0,.68-.08l.09-.09v0C28,25.89,46,15.46,50.44,12.62Zm-23.88,2.1c-2,0-3.56-.92-3.56-2.06s1.59-2.06,3.56-2.06,3.55.92,3.55,2.06S28.52,14.72,26.56,14.72Z"/><path class="cls-1" d="M23.31,29.07C17.53,26.3,6.37,19.86,0,16.32L1.64,39.77c0,.91.37,3.53,1.91,4.64C5.87,46.08,21.26,56,23,57.07a3.83,3.83,0,0,0,1.8.1s.12-.18.12-.61c0-3.07-.12-16.45-.3-24.24C24.58,30.1,24.38,29.57,23.31,29.07ZM4.4,27.65c-1.46-.21-2.75-2-2.95-3.46-.31-2.28.76-3.59,2.65-2.9a5.07,5.07,0,0,1,2.43,2.93C7.32,27,6.23,27.91,4.4,27.65Zm8,13.2c-1.45-.21-2.75-2-2.95-3.46-.3-2.28.76-3.59,2.65-2.9a5.08,5.08,0,0,1,2.44,2.93C15.34,40.24,14.24,41.11,12.41,40.85ZM20.61,54c-1.46-.21-2.76-2-2.95-3.46-.31-2.28.75-3.59,2.64-2.9a5.1,5.1,0,0,1,2.44,2.94C23.53,53.34,22.43,54.22,20.61,54Z"/><path class="cls-1" d="M52.62,15.25C46.36,19,35.89,26,30.19,28.94c-1.05.54-1.39,1.16-1.38,3.38.11,17.34.4,22.69.43,24.26a1,1,0,0,0,.14.6A3.46,3.46,0,0,0,31.06,57c1.71-1.14,17.35-10.88,19.63-12.62,1.5-1.15,1.79-3.78,1.77-4.69M37.41,49c-.2,1.48-1.5,3.25-2.95,3.46-1.83.27-2.93-.61-2.14-3.42a5.1,5.1,0,0,1,2.44-2.94C36.65,45.39,37.71,46.7,37.41,49Zm0-9c-.2,1.48-1.5,3.25-2.95,3.46-1.83.26-2.93-.61-2.14-3.43a5.08,5.08,0,0,1,2.44-2.93C36.65,36.42,37.71,37.73,37.41,40Zm0-9c-.2,1.49-1.5,3.26-2.95,3.47-1.83.26-2.93-.62-2.14-3.43a5,5,0,0,1,2.44-2.93C36.65,27.44,37.71,28.76,37.41,31ZM50.86,41c-.2,1.49-1.5,3.26-3,3.47-1.83.26-2.93-.62-2.14-3.43a5,5,0,0,1,2.44-2.93C50.1,37.41,51.16,38.72,50.86,41Zm0-9c-.2,1.48-1.5,3.25-3,3.46-1.83.27-2.93-.61-2.14-3.42a5.07,5.07,0,0,1,2.44-2.94C50.1,28.44,51.16,29.75,50.86,32Zm0-9c-.2,1.48-1.5,3.25-3,3.46-1.83.26-2.93-.61-2.14-3.43a5.08,5.08,0,0,1,2.44-2.93C50.1,19.46,51.16,20.78,50.86,23.06Z"/></g></g></svg>