<svg viewBox="0 0 62.02 52.27"><g id="Layer_2" data-name="Layer 2"><g id="Layer_1-2" data-name="Layer 1"><path class="cls-1" d="M43.06,8.23A25.12,25.12,0,0,1,25.6,47,22.13,22.13,0,1,0,43.06,8.23Z"/><path class="cls-1" d="M44.27,22.14A22,22,0,0,0,39.17,8c-.41-.5-.84-1-1.29-1.43s-1-.92-1.46-1.35A22.13,22.13,0,1,0,19,44c.64.09,1.3.16,2,.2.4,0,.81,0,1.22,0l.71,0A22.14,22.14,0,0,0,44.27,22.14ZM27.58,29.82a7.66,7.66,0,0,1-4.37,1.87v3.92H20.43V31.72a13,13,0,0,1-3.79-1,11.92,11.92,0,0,1-3.21-2.05L15,25.44a11.53,11.53,0,0,0,3.33,2.15,8.74,8.74,0,0,0,3.45.79,4.4,4.4,0,0,0,2.47-.6,2,2,0,0,0,.35-3,4,4,0,0,0-1.39-.88,23.74,23.74,0,0,0-2.3-.76A27.14,27.14,0,0,1,17.66,22a5.62,5.62,0,0,1-2.16-1.7,4.64,4.64,0,0,1-.9-3,4.94,4.94,0,0,1,1.57-3.73,7.47,7.47,0,0,1,4.26-1.85V8.06l2.78,0v3.64a13.87,13.87,0,0,1,3.11.7A13,13,0,0,1,29,13.69L27.53,17a14.38,14.38,0,0,0-3.1-1.43,9.26,9.26,0,0,0-2.79-.5,3.86,3.86,0,0,0-2.13.5,1.59,1.59,0,0,0-.79,1.4,1.86,1.86,0,0,0,.55,1.36,4.08,4.08,0,0,0,1.37.9A22.92,22.92,0,0,0,22.9,20a23.19,23.19,0,0,1,3.27,1.18,5.85,5.85,0,0,1,2.17,1.73,4.79,4.79,0,0,1,.9,3A5.1,5.1,0,0,1,27.58,29.82Z"/></g></g></svg>