<svg viewBox="0 0 72.22 76.58"><g id="Layer_2" data-name="Layer 2"><g id="Layer_1-2" data-name="Layer 1"><path class="cls-1" d="M13.41,11.05C8.27,13.56,7.15,17.78,2,20.29l4.4,9c5.14-2.5,6.26-6.72,11.41-9.23C16.06,16.47,15.18,14.66,13.41,11.05Z"/><path class="cls-1" d="M34.3,20c-5.14,2.5-11.34-2.43-16.48.08l4.4,9c5.14-2.51,11.34,2.43,16.48-.08Z"/><path class="cls-1" d="M22.22,29.1c-5.15,2.51-6.27,6.73-11.41,9.24l4.4,9c5.14-2.51,6.26-6.73,11.41-9.23Z"/><path class="cls-1" d="M26.62,38.13l4.4,9c5.14-2.51,11.34,2.43,16.48-.08l-4.4-9C38,40.55,31.76,35.62,26.62,38.13Z"/><path class="cls-1" d="M39.85,0C34.71,2.51,35,8.46,29.9,11l4.4,9c5.14-2.51,4.81-8.47,10-11Z"/><path class="cls-1" d="M59,7.94C53.88,10.45,49.39,6.52,44.25,9l4.4,9c5.14-2.51,9.63,1.42,14.77-1.08Z"/><path class="cls-1" d="M48.65,18.05c-5.14,2.51-4.81,8.46-9.95,11l4.4,9c5.14-2.5,4.81-8.46,9.95-11Z"/><path class="cls-1" d="M53.05,27.07l4.4,9c5.14-2.51,9.63,1.42,14.77-1.09l-4.4-9C62.68,28.5,58.19,24.56,53.05,27.07Z"/><path class="cls-1" d="M27.36,76.14.08,19.64a.78.78,0,0,1,.36-1h0a.78.78,0,0,1,1,.37l27.28,56.5a.78.78,0,0,1-.36,1h0A.78.78,0,0,1,27.36,76.14Z"/></g></g></svg>