<svg viewBox="0 0 67.11 40.58"><g id="Layer_2" data-name="Layer 2"><g id="Layer_1-2" data-name="Layer 1"><path class="cls-1" d="M37.14,37a6.81,6.81,0,0,1-1.46-1.3,6.64,6.64,0,0,1-1-1.75L21.62,0H19.4Q16.61,7.22,13,16.44T6.49,33.07a10.33,10.33,0,0,1-1.2,2.26A7.12,7.12,0,0,1,3.58,36.9a6,6,0,0,1-1.78.7,11.51,11.51,0,0,1-1.8.32v2H14.81v-2a13.74,13.74,0,0,1-3.93-.72c-1.17-.41-1.75-1-1.75-1.72a7.32,7.32,0,0,1,.14-1.22,18.74,18.74,0,0,1,.5-1.94c.26-.81.55-1.7.87-2.66s.75-2.09,1.27-3.38h13.8L29,35.09a2.84,2.84,0,0,1,.17.64,5.13,5.13,0,0,1,.05.61c0,.41-.47.75-1.42,1a17.44,17.44,0,0,1-3.59.55v2H40.53v-2a8.19,8.19,0,0,1-1.72-.29A6.32,6.32,0,0,1,37.14,37ZM12.87,23.81,18.74,8.55l6,15.26Z"/><path class="cls-1" d="M65.27,37.59A2.82,2.82,0,0,1,64,37.31a2.94,2.94,0,0,1-1.15-1.08,3.38,3.38,0,0,1-.37-1.72c0-2.42,0-4.65.08-6.69s.08-4.39.08-7a11.86,11.86,0,0,0-.73-4.53,6.43,6.43,0,0,0-2.15-2.79,7.42,7.42,0,0,0-3.15-1.37,22.89,22.89,0,0,0-4.06-.32,11.81,11.81,0,0,0-3.46.54,12.46,12.46,0,0,0-3,1.32,8.87,8.87,0,0,0-2.35,2.08,3.89,3.89,0,0,0-.25,4.64,2.27,2.27,0,0,0,2,1,3.44,3.44,0,0,0,2.43-.8,2.38,2.38,0,0,0,.87-1.77,8.79,8.79,0,0,0-.26-2,7.45,7.45,0,0,1-.27-1.63,4.31,4.31,0,0,1,1.54-.91,6.57,6.57,0,0,1,2.37-.43,4.67,4.67,0,0,1,2.87.77,5.51,5.51,0,0,1,1.57,1.78,5.83,5.83,0,0,1,.65,1.95,11.67,11.67,0,0,1,.15,1.38v2.75a38.36,38.36,0,0,1-5.14,2q-3.81,1.27-5.06,1.75a14.78,14.78,0,0,0-2.13,1,6.59,6.59,0,0,0-1.83,1.48,6.51,6.51,0,0,0-1.33,2.25,8.26,8.26,0,0,0-.45,2.82,6.51,6.51,0,0,0,2,4.94,7.07,7.07,0,0,0,5.06,1.88,10.9,10.9,0,0,0,5-1,13.72,13.72,0,0,0,3.87-3.05h.16a4.66,4.66,0,0,0,1.65,3,5.41,5.41,0,0,0,3.45,1,7.63,7.63,0,0,0,2.23-.29c.66-.19,1.42-.45,2.29-.76V37.62C66.48,37.62,65.87,37.61,65.27,37.59Zm-8-3.25a10,10,0,0,1-2.52,2.26,6.3,6.3,0,0,1-3.47,1,4.4,4.4,0,0,1-3.06-1.08A4.35,4.35,0,0,1,47,33.09,5.65,5.65,0,0,1,47.82,30,7.4,7.4,0,0,1,50,27.78a16.45,16.45,0,0,1,3.3-1.66c1.18-.45,2.55-.9,4.13-1.37Z"/></g></g></svg>